<svg width="400" height="200" viewBox="0 0 400 200" fill="none" xmlns="http://www.w3.org/2000/svg">
<g clip-path="url(#clip0)">
<rect width="400" height="200" fill="white"/>
<path d="M37 29C37 20.7157 43.7157 14 52 14H348C356.284 14 363 20.7157 363 29V170C363 178.284 356.284 185 348 185H52C43.7157 185 37 178.284 37 170V29Z" fill="#C6FCFF"/>
<path d="M243.031 138.516C243.031 137.734 242.734 137.13 242.141 136.703C241.557 136.266 240.531 135.891 239.062 135.578C237.604 135.266 236.443 134.891 235.578 134.453C234.724 134.016 234.089 133.495 233.672 132.891C233.266 132.286 233.062 131.568 233.062 130.734C233.062 129.349 233.646 128.177 234.812 127.219C235.99 126.26 237.49 125.781 239.312 125.781C241.229 125.781 242.781 126.276 243.969 127.266C245.167 128.255 245.766 129.521 245.766 131.062H242.859C242.859 130.271 242.521 129.589 241.844 129.016C241.177 128.443 240.333 128.156 239.312 128.156C238.26 128.156 237.438 128.385 236.844 128.844C236.25 129.302 235.953 129.901 235.953 130.641C235.953 131.339 236.229 131.865 236.781 132.219C237.333 132.573 238.328 132.911 239.766 133.234C241.214 133.557 242.385 133.943 243.281 134.391C244.177 134.839 244.839 135.38 245.266 136.016C245.703 136.641 245.922 137.406 245.922 138.312C245.922 139.823 245.318 141.036 244.109 141.953C242.901 142.859 241.333 143.312 239.406 143.312C238.052 143.312 236.854 143.073 235.812 142.594C234.771 142.115 233.953 141.448 233.359 140.594C232.776 139.729 232.484 138.797 232.484 137.797H235.375C235.427 138.766 235.812 139.536 236.531 140.109C237.26 140.672 238.219 140.953 239.406 140.953C240.5 140.953 241.375 140.734 242.031 140.297C242.698 139.849 243.031 139.255 243.031 138.516ZM253.609 122V126.094H256.766V128.328H253.609V138.812C253.609 139.49 253.75 140 254.031 140.344C254.312 140.677 254.792 140.844 255.469 140.844C255.802 140.844 256.26 140.781 256.844 140.656V143C256.083 143.208 255.344 143.312 254.625 143.312C253.333 143.312 252.359 142.922 251.703 142.141C251.047 141.359 250.719 140.25 250.719 138.812V128.328H247.641V126.094H250.719V122H253.609ZM268.328 128.688C267.891 128.615 267.417 128.578 266.906 128.578C265.01 128.578 263.724 129.385 263.047 131V143H260.156V126.094H262.969L263.016 128.047C263.964 126.536 265.307 125.781 267.047 125.781C267.609 125.781 268.036 125.854 268.328 126V128.688ZM277.703 143.312C275.411 143.312 273.547 142.562 272.109 141.062C270.672 139.552 269.953 137.536 269.953 135.016V134.484C269.953 132.807 270.271 131.312 270.906 130C271.552 128.677 272.448 127.646 273.594 126.906C274.75 126.156 276 125.781 277.344 125.781C279.542 125.781 281.25 126.505 282.469 127.953C283.688 129.401 284.297 131.474 284.297 134.172V135.375H272.844C272.885 137.042 273.37 138.391 274.297 139.422C275.234 140.443 276.422 140.953 277.859 140.953C278.88 140.953 279.745 140.745 280.453 140.328C281.161 139.911 281.781 139.359 282.312 138.672L284.078 140.047C282.661 142.224 280.536 143.312 277.703 143.312ZM277.344 128.156C276.177 128.156 275.198 128.583 274.406 129.438C273.615 130.281 273.125 131.469 272.938 133H281.406V132.781C281.323 131.312 280.927 130.177 280.219 129.375C279.51 128.562 278.552 128.156 277.344 128.156ZM298.094 143C297.927 142.667 297.792 142.073 297.688 141.219C296.344 142.615 294.74 143.312 292.875 143.312C291.208 143.312 289.839 142.844 288.766 141.906C287.703 140.958 287.172 139.76 287.172 138.312C287.172 136.552 287.839 135.188 289.172 134.219C290.516 133.24 292.401 132.75 294.828 132.75H297.641V131.422C297.641 130.411 297.339 129.609 296.734 129.016C296.13 128.411 295.24 128.109 294.062 128.109C293.031 128.109 292.167 128.37 291.469 128.891C290.771 129.411 290.422 130.042 290.422 130.781H287.516C287.516 129.938 287.812 129.125 288.406 128.344C289.01 127.552 289.823 126.927 290.844 126.469C291.875 126.01 293.005 125.781 294.234 125.781C296.182 125.781 297.708 126.271 298.812 127.25C299.917 128.219 300.49 129.557 300.531 131.266V139.047C300.531 140.599 300.729 141.833 301.125 142.75V143H298.094ZM293.297 140.797C294.203 140.797 295.062 140.562 295.875 140.094C296.688 139.625 297.276 139.016 297.641 138.266V134.797H295.375C291.833 134.797 290.062 135.833 290.062 137.906C290.062 138.812 290.365 139.521 290.969 140.031C291.573 140.542 292.349 140.797 293.297 140.797ZM307.781 126.094L307.859 127.969C309.099 126.51 310.771 125.781 312.875 125.781C315.24 125.781 316.849 126.688 317.703 128.5C318.266 127.688 318.995 127.031 319.891 126.531C320.797 126.031 321.865 125.781 323.094 125.781C326.802 125.781 328.688 127.745 328.75 131.672V143H325.859V131.844C325.859 130.635 325.583 129.734 325.031 129.141C324.479 128.536 323.552 128.234 322.25 128.234C321.177 128.234 320.286 128.557 319.578 129.203C318.87 129.839 318.458 130.698 318.344 131.781V143H315.438V131.922C315.438 129.464 314.234 128.234 311.828 128.234C309.932 128.234 308.635 129.042 307.938 130.656V143H305.047V126.094H307.781Z" fill="#1A1818"/>
<path d="M96.9688 104.953C98 104.953 98.901 104.641 99.6719 104.016C100.443 103.391 100.87 102.609 100.953 101.672H103.688C103.635 102.641 103.302 103.562 102.688 104.438C102.073 105.312 101.25 106.01 100.219 106.531C99.1979 107.052 98.1146 107.312 96.9688 107.312C94.6667 107.312 92.8333 106.547 91.4688 105.016C90.1146 103.474 89.4375 101.37 89.4375 98.7031V98.2188C89.4375 96.5729 89.7396 95.1094 90.3438 93.8281C90.9479 92.5469 91.8125 91.5521 92.9375 90.8438C94.0729 90.1354 95.4115 89.7812 96.9531 89.7812C98.849 89.7812 100.422 90.349 101.672 91.4844C102.932 92.6198 103.604 94.0938 103.688 95.9062H100.953C100.87 94.8125 100.453 93.9167 99.7031 93.2188C98.9635 92.5104 98.0469 92.1562 96.9531 92.1562C95.4844 92.1562 94.3438 92.6875 93.5312 93.75C92.7292 94.8021 92.3281 96.3281 92.3281 98.3281V98.875C92.3281 100.823 92.7292 102.323 93.5312 103.375C94.3333 104.427 95.4792 104.953 96.9688 104.953ZM106.172 98.3906C106.172 96.7344 106.495 95.2448 107.141 93.9219C107.797 92.599 108.703 91.5781 109.859 90.8594C111.026 90.1406 112.354 89.7812 113.844 89.7812C116.146 89.7812 118.005 90.5781 119.422 92.1719C120.849 93.7656 121.562 95.8854 121.562 98.5312V98.7344C121.562 100.38 121.245 101.859 120.609 103.172C119.984 104.474 119.083 105.49 117.906 106.219C116.74 106.948 115.396 107.312 113.875 107.312C111.583 107.312 109.724 106.516 108.297 104.922C106.88 103.328 106.172 101.219 106.172 98.5938V98.3906ZM109.078 98.7344C109.078 100.609 109.51 102.115 110.375 103.25C111.25 104.385 112.417 104.953 113.875 104.953C115.344 104.953 116.51 104.38 117.375 103.234C118.24 102.078 118.672 100.464 118.672 98.3906C118.672 96.5365 118.229 95.0365 117.344 93.8906C116.469 92.7344 115.302 92.1562 113.844 92.1562C112.417 92.1562 111.266 92.724 110.391 93.8594C109.516 94.9948 109.078 96.6198 109.078 98.7344ZM124.484 98.4062C124.484 95.8125 125.099 93.7292 126.328 92.1562C127.557 90.5729 129.167 89.7812 131.156 89.7812C133.135 89.7812 134.703 90.4583 135.859 91.8125V83H138.75V107H136.094L135.953 105.188C134.797 106.604 133.188 107.312 131.125 107.312C129.167 107.312 127.568 106.51 126.328 104.906C125.099 103.302 124.484 101.208 124.484 98.625V98.4062ZM127.375 98.7344C127.375 100.651 127.771 102.151 128.562 103.234C129.354 104.318 130.448 104.859 131.844 104.859C133.677 104.859 135.016 104.036 135.859 102.391V94.625C134.995 93.0312 133.667 92.2344 131.875 92.2344C130.458 92.2344 129.354 92.7812 128.562 93.875C127.771 94.9688 127.375 96.5885 127.375 98.7344ZM150.266 107.312C147.974 107.312 146.109 106.562 144.672 105.062C143.234 103.552 142.516 101.536 142.516 99.0156V98.4844C142.516 96.8073 142.833 95.3125 143.469 94C144.115 92.6771 145.01 91.6458 146.156 90.9062C147.312 90.1562 148.562 89.7812 149.906 89.7812C152.104 89.7812 153.812 90.5052 155.031 91.9531C156.25 93.401 156.859 95.474 156.859 98.1719V99.375H145.406C145.448 101.042 145.932 102.391 146.859 103.422C147.797 104.443 148.984 104.953 150.422 104.953C151.443 104.953 152.307 104.745 153.016 104.328C153.724 103.911 154.344 103.359 154.875 102.672L156.641 104.047C155.224 106.224 153.099 107.312 150.266 107.312ZM149.906 92.1562C148.74 92.1562 147.76 92.5833 146.969 93.4375C146.177 94.2812 145.688 95.4688 145.5 97H153.969V96.7812C153.885 95.3125 153.49 94.1771 152.781 93.375C152.073 92.5625 151.115 92.1562 149.906 92.1562Z" fill="#1A1818"/>
<path d="M139.562 111.336C139.234 118.461 137.312 124.766 133.797 130.25C130.281 135.688 125.336 139.906 118.961 142.906C112.633 145.906 105.391 147.406 97.2344 147.406C83.7812 147.406 73.1875 143.023 65.4531 134.258C57.7188 125.492 53.8516 113.117 53.8516 97.1328V92.0703C53.8516 82.0391 55.5859 73.2734 59.0547 65.7734C62.5703 58.2266 67.6094 52.4141 74.1719 48.3359C80.7344 44.2109 88.3281 42.1484 96.9531 42.1484C109.375 42.1484 119.359 45.4297 126.906 51.9922C134.453 58.5078 138.742 67.5078 139.773 78.9922H115.164C114.977 72.7578 113.406 68.2812 110.453 65.5625C107.5 62.8437 103 61.4844 96.9531 61.4844C90.8125 61.4844 86.3125 63.7813 83.4531 68.375C80.5938 72.9688 79.0938 80.3047 78.9531 90.3828V97.625C78.9531 108.547 80.3125 116.352 83.0312 121.039C85.7969 125.727 90.5312 128.07 97.2344 128.07C102.906 128.07 107.242 126.734 110.242 124.062C113.242 121.391 114.836 117.148 115.023 111.336H139.562ZM204.039 118.789C204.039 115.18 202.75 112.367 200.172 110.352C197.641 108.336 193.164 106.25 186.742 104.094C180.32 101.938 175.07 99.8516 170.992 97.8359C157.727 91.3203 151.094 82.3672 151.094 70.9766C151.094 65.3047 152.734 60.3125 156.016 56C159.344 51.6406 164.031 48.2656 170.078 45.875C176.125 43.4375 182.922 42.2188 190.469 42.2188C197.828 42.2188 204.414 43.5313 210.227 46.1562C216.086 48.7812 220.633 52.5313 223.867 57.4062C227.102 62.2344 228.719 67.7656 228.719 74H204.109C204.109 69.8281 202.82 66.5938 200.242 64.2969C197.711 62 194.266 60.8516 189.906 60.8516C185.5 60.8516 182.008 61.8359 179.43 63.8047C176.898 65.7266 175.633 68.1875 175.633 71.1875C175.633 73.8125 177.039 76.2031 179.852 78.3594C182.664 80.4688 187.609 82.6719 194.688 84.9688C201.766 87.2188 207.578 89.6562 212.125 92.2812C223.188 98.6562 228.719 107.445 228.719 118.648C228.719 127.602 225.344 134.633 218.594 139.742C211.844 144.852 202.586 147.406 190.82 147.406C182.523 147.406 175 145.93 168.25 142.977C161.547 139.977 156.484 135.898 153.062 130.742C149.688 125.539 148 119.562 148 112.812H172.75C172.75 118.297 174.156 122.352 176.969 124.977C179.828 127.555 184.445 128.844 190.82 128.844C194.898 128.844 198.109 127.977 200.453 126.242C202.844 124.461 204.039 121.977 204.039 118.789Z" fill="#1A1818"/>
</g>
<defs>
<clipPath id="clip0">
<rect width="400" height="200" fill="white"/>
</clipPath>
</defs>
</svg>
