<svg width="500" height="300" viewBox="0 0 500 300" fill="none" xmlns="http://www.w3.org/2000/svg">
<g clip-path="url(#clip0)">
<rect width="500" height="300" fill="#E5E5E5"/>
<rect width="500" height="300" fill="white"/>
<path d="M245.5 182.125C243.25 185.875 240.438 190 237.062 194.5C233.688 198.906 229.469 203.031 224.406 206.875C219.438 210.625 213.531 213.766 206.688 216.297C199.844 218.828 191.922 220.094 182.922 220.094C170.078 220.094 158.875 218.125 149.312 214.188C139.844 210.156 131.969 204.812 125.688 198.156C119.406 191.406 114.719 183.719 111.625 175.094C108.531 166.375 106.984 157.328 106.984 147.953C106.984 141.672 107.688 135.391 109.094 129.109C110.5 122.828 112.562 116.828 115.281 111.109C118 105.391 121.422 100.047 125.547 95.0781C129.766 90.0156 134.594 85.6562 140.031 82C145.469 78.3438 151.609 75.4844 158.453 73.4219C165.297 71.2656 172.797 70.1875 180.953 70.1875C186.391 70.1875 191.359 70.75 195.859 71.875C200.359 72.9062 204.297 74.0781 207.672 75.3906C211.141 76.7031 214 77.9219 216.25 79.0469C218.594 80.0781 220.281 80.5938 221.312 80.5938C222.812 80.5938 223.984 80.3125 224.828 79.75C225.672 79.1875 226.328 78.4375 226.797 77.5C227.359 76.4688 227.781 75.2969 228.062 73.9844C228.438 72.6719 228.859 71.3125 229.328 69.9062H237.484L240.719 125.312H232.281C230.688 118.562 228.297 112.516 225.109 107.172C221.922 101.828 218.219 97.3281 214 93.6719C209.875 90.0156 205.375 87.2031 200.5 85.2344C195.625 83.2656 190.797 82.2812 186.016 82.2812C178.703 82.2812 172.375 84.0156 167.031 87.4844C161.688 90.8594 157.281 95.5469 153.812 101.547C150.344 107.453 147.766 114.391 146.078 122.359C144.391 130.328 143.547 138.859 143.547 147.953C143.547 157.047 144.672 165.297 146.922 172.703C149.172 180.016 152.312 186.25 156.344 191.406C160.469 196.562 165.344 200.547 170.969 203.359C176.688 206.078 183.016 207.438 189.953 207.438C195.578 207.438 200.781 206.5 205.562 204.625C210.344 202.75 214.703 200.359 218.641 197.453C222.672 194.453 226.234 191.078 229.328 187.328C232.516 183.578 235.328 179.828 237.766 176.078L245.5 182.125ZM366.156 176.359C366.156 182.828 364.844 188.781 362.219 194.219C359.594 199.562 356.031 204.156 351.531 208C347.031 211.844 341.688 214.844 335.5 217C329.406 219.062 322.844 220.094 315.812 220.094C310.469 220.094 306.156 219.672 302.875 218.828C299.688 217.984 296.969 217.047 294.719 216.016C292.469 214.891 290.453 213.906 288.672 213.062C286.984 212.219 284.969 211.797 282.625 211.797C280 211.797 277.844 212.594 276.156 214.188C274.562 215.688 273.109 217.656 271.797 220.094H263.922V165.953H272.219C272.781 170.922 274.094 176.031 276.156 181.281C278.219 186.531 281.078 191.312 284.734 195.625C288.391 199.938 292.844 203.453 298.094 206.172C303.344 208.891 309.438 210.25 316.375 210.25C319.469 210.25 322.469 209.828 325.375 208.984C328.281 208.047 330.812 206.734 332.969 205.047C335.219 203.266 337 201.156 338.312 198.719C339.625 196.188 340.281 193.375 340.281 190.281C340.281 186.062 339.203 182.312 337.047 179.031C334.891 175.75 332.031 172.75 328.469 170.031C325 167.219 321.016 164.594 316.516 162.156C312.016 159.625 307.422 157.141 302.734 154.703C298.141 152.172 293.594 149.5 289.094 146.688C284.594 143.875 280.562 140.781 277 137.406C273.531 133.938 270.719 130.047 268.562 125.734C266.406 121.422 265.328 116.5 265.328 110.969C265.328 104.969 266.406 99.4844 268.562 94.5156C270.812 89.5469 273.906 85.2812 277.844 81.7188C281.875 78.0625 286.609 75.25 292.047 73.2812C297.578 71.2188 303.672 70.1875 310.328 70.1875C314.922 70.1875 318.906 70.7031 322.281 71.7344C325.75 72.6719 328.797 73.75 331.422 74.9688C334.047 76.1875 336.391 77.3125 338.453 78.3438C340.516 79.2812 342.531 79.75 344.5 79.75C346.375 79.75 347.781 78.8125 348.719 76.9375C349.656 75.0625 350.359 72.8125 350.828 70.1875H358.984V123.625H350.125C349.469 117.062 347.922 111.109 345.484 105.766C343.047 100.422 340.047 95.875 336.484 92.125C332.922 88.375 328.891 85.5156 324.391 83.5469C319.984 81.4844 315.484 80.4531 310.891 80.4531C308.078 80.4531 305.359 80.9219 302.734 81.8594C300.203 82.7031 297.953 83.9688 295.984 85.6562C294.016 87.3438 292.469 89.3594 291.344 91.7031C290.219 94.0469 289.656 96.625 289.656 99.4375C289.656 103.094 290.734 106.422 292.891 109.422C295.141 112.328 298.047 115.094 301.609 117.719C305.172 120.25 309.25 122.688 313.844 125.031C318.438 127.281 323.125 129.672 327.906 132.203C332.688 134.734 337.375 137.406 341.969 140.219C346.562 143.031 350.641 146.172 354.203 149.641C357.766 153.109 360.625 157.047 362.781 161.453C365.031 165.766 366.156 170.734 366.156 176.359Z" fill="#18161E"/>
<rect x="79" y="134" width="314" height="29" fill="#FCFCFC"/>
<path d="M121.15 160.45C118.03 160.45 115.6 159.46 113.86 157.48C112.12 155.5 111.25 152.59 111.25 148.75C111.25 144.91 112.09 142 113.77 140.02C115.48 138.04 117.79 137.05 120.7 137.05C122.68 137.05 124.48 137.47 126.1 138.31C126.88 138.67 127.555 139.075 128.125 139.525L126.55 142.225H126.1C125.71 141.925 125.215 141.595 124.615 141.235C123.355 140.545 122.2 140.2 121.15 140.2C119.47 140.2 118.15 140.875 117.19 142.225C116.23 143.575 115.75 145.75 115.75 148.75C115.75 151.78 116.245 153.97 117.235 155.32C118.255 156.64 119.71 157.3 121.6 157.3C122.71 157.3 123.865 156.97 125.065 156.31C125.695 155.95 126.19 155.605 126.55 155.275H127L128.575 157.975C128.035 158.425 127.36 158.845 126.55 159.235C124.99 160.045 123.19 160.45 121.15 160.45ZM142.529 160.45C139.499 160.45 137.129 159.46 135.419 157.48C133.709 155.5 132.854 152.59 132.854 148.75C132.854 144.91 133.709 142 135.419 140.02C137.129 138.04 139.499 137.05 142.529 137.05C145.529 137.05 147.884 138.04 149.594 140.02C151.334 142 152.204 144.91 152.204 148.75C152.204 152.59 151.334 155.5 149.594 157.48C147.884 159.46 145.529 160.45 142.529 160.45ZM142.529 157.3C144.089 157.3 145.334 156.625 146.264 155.275C147.224 153.895 147.704 151.72 147.704 148.75C147.704 145.78 147.224 143.62 146.264 142.27C145.334 140.89 144.089 140.2 142.529 140.2C140.969 140.2 139.709 140.89 138.749 142.27C137.819 143.62 137.354 145.78 137.354 148.75C137.354 151.72 137.819 153.895 138.749 155.275C139.709 156.625 140.969 157.3 142.529 157.3ZM165.941 160.45C164.471 160.45 163.121 160.015 161.891 159.145C160.661 158.245 159.671 156.925 158.921 155.185C158.201 153.415 157.841 151.27 157.841 148.75C157.841 144.94 158.666 142.045 160.316 140.065C161.966 138.055 164.141 137.05 166.841 137.05C167.861 137.05 169.016 137.275 170.306 137.725L171.791 138.4V129.85L173.141 128.5H176.291V160H173.141L172.691 157.3H172.466C172.046 157.9 171.521 158.425 170.891 158.875C169.571 159.925 167.921 160.45 165.941 160.45ZM167.066 157.075C168.176 157.075 169.301 156.625 170.441 155.725C170.951 155.305 171.401 154.855 171.791 154.375V141.1C171.521 140.95 171.116 140.8 170.576 140.65C169.556 140.35 168.536 140.2 167.516 140.2C165.956 140.2 164.696 140.89 163.736 142.27C162.806 143.62 162.341 145.78 162.341 148.75C162.341 151.6 162.776 153.7 163.646 155.05C164.546 156.4 165.686 157.075 167.066 157.075ZM192.948 160.45C189.828 160.45 187.398 159.46 185.658 157.48C183.918 155.5 183.048 152.59 183.048 148.75C183.048 144.94 183.888 142.045 185.568 140.065C187.248 138.055 189.483 137.05 192.273 137.05C195.063 137.05 197.298 138.055 198.978 140.065C200.658 142.045 201.498 144.94 201.498 148.75V149.425L200.598 150.325H187.548C187.548 152.635 188.058 154.375 189.078 155.545C190.098 156.715 191.538 157.3 193.398 157.3C194.508 157.3 195.663 156.97 196.863 156.31C197.493 155.95 197.988 155.605 198.348 155.275H198.798L200.373 157.975C199.833 158.425 199.158 158.845 198.348 159.235C196.788 160.045 194.988 160.45 192.948 160.45ZM196.998 147.175C196.998 144.805 196.563 143.05 195.693 141.91C194.853 140.77 193.713 140.2 192.273 140.2C190.833 140.2 189.678 140.77 188.808 141.91C187.968 143.05 187.548 144.805 187.548 147.175H196.998ZM228.719 160.45C226.259 160.45 224.189 160.045 222.509 159.235C221.639 158.845 220.934 158.425 220.394 157.975L221.969 155.275H222.419C222.749 155.575 223.274 155.92 223.994 156.31C225.374 156.97 226.799 157.3 228.269 157.3C230.069 157.3 231.374 157.015 232.184 156.445C233.024 155.875 233.444 155.11 233.444 154.15C233.444 153.16 233.009 152.41 232.139 151.9C231.299 151.39 229.979 150.835 228.179 150.235C226.589 149.695 225.314 149.2 224.354 148.75C223.394 148.3 222.569 147.655 221.879 146.815C221.189 145.975 220.844 144.895 220.844 143.575C220.844 141.565 221.549 139.975 222.959 138.805C224.399 137.635 226.544 137.05 229.394 137.05C231.524 137.05 233.459 137.47 235.199 138.31C236.039 138.7 236.729 139.105 237.269 139.525L235.694 142.225H235.244C234.794 141.895 234.284 141.565 233.714 141.235C232.394 140.545 231.104 140.2 229.844 140.2C228.344 140.2 227.219 140.485 226.469 141.055C225.719 141.595 225.344 142.285 225.344 143.125C225.344 144.115 225.764 144.865 226.604 145.375C227.474 145.885 228.809 146.44 230.609 147.04C232.199 147.58 233.474 148.075 234.434 148.525C235.394 148.975 236.219 149.62 236.909 150.46C237.599 151.3 237.944 152.38 237.944 153.7C237.944 155.83 237.194 157.495 235.694 158.695C234.194 159.865 231.869 160.45 228.719 160.45ZM252.343 160.45C250.093 160.45 248.293 159.79 246.943 158.47C245.593 157.15 244.918 155.41 244.918 153.25V140.65H241.543V137.95L247.393 132.1H249.418V137.5H255.043V140.65H249.418V153.25C249.418 154.57 249.718 155.575 250.318 156.265C250.918 156.955 251.743 157.3 252.793 157.3C253.693 157.3 254.578 157 255.448 156.4C255.838 156.13 256.228 155.83 256.618 155.5H257.068L258.643 158.2C257.983 158.71 257.383 159.085 256.843 159.325C255.403 160.075 253.903 160.45 252.343 160.45ZM263.16 137.5H266.31L266.76 140.2H266.985C267.285 139.75 267.795 139.225 268.515 138.625C269.925 137.575 271.515 137.05 273.285 137.05C274.065 137.05 274.755 137.125 275.355 137.275L276.21 137.5L275.535 141.1H275.085C274.875 141.07 274.56 140.995 274.14 140.875C273.48 140.725 272.82 140.65 272.16 140.65C271.17 140.65 270.105 141.1 268.965 142C268.575 142.33 268.14 142.78 267.66 143.35V160H263.16V137.5ZM289.496 160.45C286.376 160.45 283.946 159.46 282.206 157.48C280.466 155.5 279.596 152.59 279.596 148.75C279.596 144.94 280.436 142.045 282.116 140.065C283.796 138.055 286.031 137.05 288.821 137.05C291.611 137.05 293.846 138.055 295.526 140.065C297.206 142.045 298.046 144.94 298.046 148.75V149.425L297.146 150.325H284.096C284.096 152.635 284.606 154.375 285.626 155.545C286.646 156.715 288.086 157.3 289.946 157.3C291.056 157.3 292.211 156.97 293.411 156.31C294.041 155.95 294.536 155.605 294.896 155.275H295.346L296.921 157.975C296.381 158.425 295.706 158.845 294.896 159.235C293.336 160.045 291.536 160.45 289.496 160.45ZM293.546 147.175C293.546 144.805 293.111 143.05 292.241 141.91C291.401 140.77 290.261 140.2 288.821 140.2C287.381 140.2 286.226 140.77 285.356 141.91C284.516 143.05 284.096 144.805 284.096 147.175H293.546ZM310.64 160.45C308.3 160.45 306.47 159.835 305.15 158.605C303.86 157.345 303.215 155.635 303.215 153.475C303.215 151.345 303.98 149.695 305.51 148.525C307.07 147.325 309.53 146.725 312.89 146.725H316.49V145.6C316.49 143.83 316.07 142.495 315.23 141.595C314.42 140.665 313.265 140.2 311.765 140.2C310.685 140.2 309.515 140.545 308.255 141.235C307.625 141.595 307.145 141.925 306.815 142.225H306.365L304.79 139.525C305.39 139.075 306.065 138.67 306.815 138.31C308.435 137.47 310.235 137.05 312.215 137.05C313.925 137.05 315.44 137.425 316.76 138.175C318.08 138.895 319.115 139.915 319.865 141.235C320.615 142.525 320.99 143.98 320.99 145.6V160H317.84L317.39 157.3H317.165C316.745 157.9 316.22 158.425 315.59 158.875C314.27 159.925 312.62 160.45 310.64 160.45ZM311.765 157.075C312.875 157.075 314 156.625 315.14 155.725C315.65 155.305 316.1 154.855 316.49 154.375V149.875H312.89C311.18 149.875 309.89 150.205 309.02 150.865C308.15 151.525 307.715 152.395 307.715 153.475C307.715 154.645 308.045 155.545 308.705 156.175C309.395 156.775 310.415 157.075 311.765 157.075ZM328.63 137.5H331.78L332.23 140.2H332.455C332.875 139.72 333.415 139.195 334.075 138.625C335.485 137.575 336.97 137.05 338.53 137.05C340.27 137.05 341.785 137.575 343.075 138.625C343.675 139.165 344.11 139.69 344.38 140.2C344.8 139.75 345.415 139.225 346.225 138.625C347.905 137.575 349.54 137.05 351.13 137.05C352.48 137.05 353.695 137.38 354.775 138.04C355.885 138.67 356.755 139.57 357.385 140.74C358.015 141.91 358.33 143.23 358.33 144.7V160H353.83V144.7C353.83 143.47 353.455 142.45 352.705 141.64C351.955 140.83 351.055 140.425 350.005 140.425C349.075 140.425 348.085 140.8 347.035 141.55C346.705 141.76 346.27 142.135 345.73 142.675V160H341.23V144.7C341.23 143.47 340.855 142.45 340.105 141.64C339.355 140.83 338.455 140.425 337.405 140.425C336.445 140.425 335.455 140.875 334.435 141.775C334.045 142.105 333.61 142.555 333.13 143.125V160H328.63V137.5Z" fill="#18161E"/>
</g>
<defs>
<clipPath id="clip0">
<rect width="500" height="300" fill="white"/>
</clipPath>
</defs>
</svg>
